<svg width="422" height="386" viewBox="0 0 422 386" fill="none" xmlns="http://www.w3.org/2000/svg">
<path d="M41.7315 207.991C41.3274 207.615 41.3051 206.982 41.6816 206.578L211.812 24.0088C212.188 23.6048 212.821 23.5825 213.225 23.959L389.268 188.008C389.673 188.384 389.695 189.017 389.318 189.421L219.188 371.99C218.812 372.395 218.179 372.417 217.775 372.04L41.7315 207.991Z" fill="#DC1337" stroke="#DC1337" stroke-width="18.2419"/>
<rect x="129.743" y="110.742" width="168.515" height="176.515" rx="84.2575" stroke="#020085" stroke-width="15.485"/>
<rect x="145.103" y="148.889" width="44.6697" height="10.5105" rx="2" fill="#020085"/>
<rect x="289.53" y="234.47" width="48.4203" height="10.5105" rx="2" transform="rotate(179.387 289.53 234.47)" fill="#020085"/>
<path d="M217.875 129.87C217.414 129.118 216.483 129.014 215.874 129.484C215.474 129.793 215.216 130.262 214.827 130.583L213.094 132.011C212.705 132.331 212.44 132.774 212.141 133.18C211.145 134.532 209.979 132.157 210.211 129.67C210.243 129.337 210.36 129.019 210.522 128.726L210.533 128.706C210.695 128.413 210.807 128.095 210.859 127.765C211.03 126.681 211.229 125.355 211.702 124.934C212.133 124.552 212.806 125.027 213.379 125.079L217.122 125.42C217.696 125.472 218.276 125.69 218.472 126.232C219.06 127.857 218.574 131.01 217.875 129.87ZM219.402 162.996C220.837 162.996 222.001 164.212 222.001 165.712V236.896C222.001 255.632 213.774 265 197.322 265C195.408 265 193.343 264.827 191.127 264.482C189.89 264.29 189.001 263.16 189.001 261.853V252.809C189.001 251.184 190.355 249.935 191.906 250.043C192.74 250.101 193.503 250.13 194.192 250.13C198.697 250.13 201.755 249.238 203.367 247.454C204.979 245.669 205.785 242.15 205.785 236.896V165.712C205.785 164.212 206.948 162.996 208.383 162.996H219.402Z" fill="#020085"/>
<rect x="244.001" y="252" width="8" height="8" rx="4" fill="#020085"/>
<rect x="205.065" y="123.286" width="18.8887" height="18.8887" rx="9.44436" transform="rotate(3.25332 205.065 123.286)" fill="#020085"/>
<path d="M265.107 177.565L265.107 177.565L265.114 177.572C266.223 178.753 266.871 180.621 266.881 183.363L266.97 207.619C266.978 209.828 268.775 211.612 270.984 211.605L274.972 211.591C277.182 211.584 278.967 209.786 278.959 207.576L278.867 182.414C278.844 176.233 277.423 171.628 274.314 168.936C271.365 166.357 267.807 165.082 263.696 165.096C263.273 165.097 262.706 165.095 262.031 165.093C258.194 165.082 250.838 165.06 246.094 165.547C244.703 165.69 243.466 165.883 242.59 166.157C242.168 166.288 241.719 166.471 241.384 166.753C241.208 166.902 241.015 167.118 240.907 167.416C240.863 167.54 240.837 167.665 240.829 167.789C240.425 168.417 240.193 169.165 240.195 169.965L240.334 207.711C240.342 209.92 242.138 211.704 244.347 211.696L248.336 211.683C250.545 211.675 252.33 209.878 252.322 207.668L252.251 188.251C252.235 183.851 253.179 180.744 254.906 178.748C256.696 176.678 258.708 175.709 260.975 175.701C262.578 175.695 263.938 176.296 265.107 177.565Z" fill="#020085" stroke="#020085" stroke-width="2"/>
<circle cx="170.001" cy="190" r="16.5" stroke="#020085" stroke-width="15"/>
<path d="M212.188 152.851C212.226 152.742 212.44 151.102 212.646 149.204C212.953 146.461 213.001 145.725 212.852 145.567C212.432 145.114 212.32 145.555 211.962 149.243C211.63 152.628 211.62 152.916 211.865 152.985C211.995 153.028 212.147 152.976 212.188 152.851Z" fill="#020085"/>
<path d="M225.798 151.28C225.933 151.082 225.764 150.81 222.999 146.798C221.473 144.563 220.739 143.633 220.545 143.649C220.382 143.651 220.227 143.735 220.188 143.844C220.094 144.078 225.102 151.286 225.435 151.378C225.564 151.421 225.731 151.371 225.798 151.28Z" fill="#020085"/>
<path d="M217.759 149.613C217.889 149.302 217.209 145.125 217.012 145.012C216.926 144.973 216.747 144.99 216.639 145.046C216.484 145.129 216.491 145.564 216.753 147.18C216.912 148.271 217.104 149.317 217.164 149.483C217.298 149.816 217.647 149.893 217.759 149.613Z" fill="#020085"/>
<path d="M208.038 147.726C208.087 147.665 208.378 147.03 208.673 146.346C209.132 145.29 209.196 145.07 209.033 144.895C208.734 144.581 208.586 144.762 207.983 146.112C207.544 147.089 207.441 147.435 207.56 147.605C207.729 147.877 207.902 147.924 208.038 147.726Z" fill="#020085"/>
<path d="M201.059 140.723C202.318 140.184 202.877 139.877 202.893 139.685C202.905 139.541 202.861 139.36 202.777 139.305C202.708 139.251 201.749 139.574 200.645 140.029C199.156 140.661 198.644 140.941 198.625 141.164C198.584 141.644 199.11 141.543 201.059 140.723Z" fill="#020085"/>
<path d="M203.152 145.677C204.616 144.125 205.816 142.712 205.828 142.569C205.891 141.834 205.29 142.282 203.126 144.597C201.889 145.926 200.667 147.241 200.421 147.526C199.98 148.021 199.925 148.483 200.293 148.513C200.41 148.523 201.688 147.245 203.152 145.677Z" fill="#020085"/>
<path d="M228.999 143.564C229.054 143.439 229.055 143.262 228.988 143.176C228.785 142.95 223.608 140.685 223.395 140.747C223.244 140.783 223.074 141.397 223.206 141.408C223.235 141.41 224.477 141.948 225.96 142.602C227.442 143.257 228.713 143.797 228.772 143.802C228.831 143.807 228.928 143.703 228.999 143.564Z" fill="#020085"/>
<path d="M197.36 136.038C200.049 135.908 202.305 135.822 202.363 135.827C202.438 135.817 202.494 135.677 202.508 135.517C202.523 135.341 202.494 135.161 202.423 135.123C202.368 135.071 200.056 135.12 197.28 135.243C194.504 135.35 192.175 135.429 192.114 135.44C191.894 135.422 192.024 136.157 192.243 136.191C192.359 136.217 194.658 136.151 197.36 136.038Z" fill="#020085"/>
<path d="M233.907 137.632C235.853 137.714 235.972 137.708 235.998 137.404C236.025 137.084 235.951 137.078 231.098 136.739C226.129 136.373 225.564 136.407 225.815 136.943C225.902 137.127 229.838 137.471 233.907 137.632Z" fill="#020085"/>
<path d="M203.193 131.47C203.355 131.129 203.074 130.945 201.71 130.461C200.259 129.954 199.939 129.895 199.77 130.139C199.567 130.444 200.015 130.738 201.395 131.207C203.006 131.744 203.065 131.749 203.193 131.47Z" fill="#020085"/>
<path d="M229.098 131.372C231.046 130.73 232.011 130.343 232.055 130.17C232.097 130.029 232.037 129.863 231.924 129.805C231.81 129.747 230.387 130.128 228.774 130.653C226.372 131.419 225.82 131.647 225.798 131.902C225.785 132.062 225.874 132.231 225.99 132.256C226.106 132.282 227.501 131.883 229.098 131.372Z" fill="#020085"/>
<path d="M212.188 152.851C212.226 152.742 212.44 151.102 212.646 149.204C212.953 146.461 213.001 145.725 212.852 145.567C212.432 145.114 212.32 145.555 211.962 149.243C211.63 152.628 211.62 152.916 211.865 152.985C211.995 153.028 212.147 152.976 212.188 152.851Z" stroke="#020085" stroke-width="0.8"/>
<path d="M225.798 151.28C225.933 151.082 225.764 150.81 222.999 146.798C221.473 144.563 220.739 143.633 220.545 143.649C220.382 143.651 220.227 143.735 220.188 143.844C220.094 144.078 225.102 151.286 225.435 151.378C225.564 151.421 225.731 151.371 225.798 151.28Z" stroke="#020085" stroke-width="0.8"/>
<path d="M217.759 149.613C217.889 149.302 217.209 145.125 217.012 145.012C216.926 144.973 216.747 144.99 216.639 145.046C216.484 145.129 216.491 145.564 216.753 147.18C216.912 148.271 217.104 149.317 217.164 149.483C217.298 149.816 217.647 149.893 217.759 149.613Z" stroke="#020085" stroke-width="0.8"/>
<path d="M208.038 147.726C208.087 147.665 208.378 147.03 208.673 146.346C209.132 145.29 209.196 145.07 209.033 144.895C208.734 144.581 208.586 144.762 207.983 146.112C207.544 147.089 207.441 147.435 207.56 147.605C207.729 147.877 207.902 147.924 208.038 147.726Z" stroke="#020085" stroke-width="0.8"/>
<path d="M201.059 140.723C202.318 140.184 202.877 139.877 202.893 139.685C202.905 139.541 202.861 139.36 202.777 139.305C202.708 139.251 201.749 139.574 200.645 140.029C199.156 140.661 198.644 140.941 198.625 141.164C198.584 141.644 199.11 141.543 201.059 140.723Z" stroke="#020085" stroke-width="0.8"/>
<path d="M203.152 145.677C204.616 144.125 205.816 142.712 205.828 142.569C205.891 141.834 205.29 142.282 203.126 144.597C201.889 145.926 200.667 147.241 200.421 147.526C199.98 148.021 199.925 148.483 200.293 148.513C200.41 148.523 201.688 147.245 203.152 145.677Z" stroke="#020085" stroke-width="0.8"/>
<path d="M228.999 143.564C229.054 143.439 229.055 143.262 228.988 143.176C228.785 142.95 223.608 140.685 223.395 140.747C223.244 140.783 223.074 141.397 223.206 141.408C223.235 141.41 224.477 141.948 225.96 142.602C227.442 143.257 228.713 143.797 228.772 143.802C228.831 143.807 228.928 143.703 228.999 143.564Z" stroke="#020085" stroke-width="0.8"/>
<path d="M197.36 136.038C200.049 135.908 202.305 135.822 202.363 135.827C202.438 135.817 202.494 135.677 202.508 135.517C202.523 135.341 202.494 135.161 202.423 135.123C202.368 135.071 200.056 135.12 197.28 135.243C194.504 135.35 192.175 135.429 192.114 135.44C191.894 135.422 192.024 136.157 192.243 136.191C192.359 136.217 194.658 136.151 197.36 136.038Z" stroke="#020085" stroke-width="0.8"/>
<path d="M233.907 137.632C235.853 137.714 235.972 137.708 235.998 137.404C236.025 137.084 235.951 137.078 231.098 136.739C226.129 136.373 225.564 136.407 225.815 136.943C225.902 137.127 229.838 137.471 233.907 137.632Z" stroke="#020085" stroke-width="0.8"/>
<path d="M203.193 131.47C203.355 131.129 203.074 130.945 201.71 130.461C200.259 129.954 199.939 129.895 199.77 130.139C199.567 130.444 200.015 130.738 201.395 131.207C203.006 131.744 203.065 131.749 203.193 131.47Z" stroke="#020085" stroke-width="0.8"/>
<path d="M229.098 131.372C231.046 130.73 232.011 130.343 232.055 130.17C232.097 130.029 232.037 129.863 231.924 129.805C231.81 129.747 230.387 130.128 228.774 130.653C226.372 131.419 225.82 131.647 225.798 131.902C225.785 132.062 225.874 132.231 225.99 132.256C226.106 132.282 227.501 131.883 229.098 131.372Z" stroke="#020085" stroke-width="0.8"/>
<path d="M225.698 6.73882C225.354 7.77992 223.692 23.304 222.158 41.2629C219.847 67.2144 219.553 74.1748 220.996 75.6271C225.057 79.8164 226.014 75.6266 228.601 40.7417C231.01 8.72828 231.04 5.99961 228.708 5.40367C227.477 5.02594 226.051 5.54659 225.698 6.73882Z" fill="#020085"/>
<path d="M97.6238 24.4882C96.3909 26.3857 98.0456 28.9128 124.997 66.1884C139.873 86.9586 147.002 95.5809 148.826 95.3876C150.363 95.3288 151.808 94.5057 152.151 93.4648C152.986 91.2397 104.187 24.2778 101.031 23.4805C99.8005 23.1027 98.2355 23.615 97.6238 24.4882Z" fill="#020085"/>
<path d="M173.827 38.4955C172.667 41.4595 179.981 80.7346 181.869 81.7587C182.683 82.1114 184.368 81.9097 185.378 81.364C186.822 80.5409 186.659 76.4354 183.841 61.2476C182.11 50.9797 180.073 41.1483 179.473 39.595C178.133 36.4801 174.829 35.8255 173.827 38.4955Z" fill="#020085"/>
<path d="M265.951 54.2228C265.497 54.8023 262.89 60.8642 260.255 67.3797C256.145 77.4464 255.597 79.5369 257.169 81.1489C260.055 84.0537 261.417 82.3158 266.817 69.4446C270.741 60.1248 271.642 56.8421 270.487 55.2552C268.832 52.7282 267.184 52.3252 265.951 54.2228Z" fill="#020085"/>
<path d="M333.295 118.816C321.533 124.173 316.328 127.196 316.215 129.01C316.131 130.37 316.583 132.065 317.387 132.569C318.054 133.065 327.036 129.815 337.353 125.281C351.264 118.991 356.034 116.245 356.165 114.129C356.447 109.596 351.503 110.662 333.295 118.816Z" fill="#020085"/>
<path d="M312.481 72.5059C299.007 87.4682 287.987 101.062 287.903 102.422C287.47 109.374 293.038 105.008 312.962 82.6984C324.351 69.8857 335.592 57.2156 337.853 54.4701C341.913 49.7092 342.324 45.3349 338.852 45.1252C337.742 45.0581 325.964 57.3926 312.481 72.5059Z" fill="#020085"/>
<path d="M69.0799 98.0041C68.5884 99.1879 68.6237 100.859 69.2711 101.656C71.2317 103.747 120.564 124.019 122.555 123.381C123.972 123.012 125.449 117.185 124.2 117.109C123.922 117.092 112.095 112.282 97.9646 106.423C83.834 100.564 71.7297 95.737 71.1744 95.7035C70.619 95.6699 69.7201 96.6776 69.0799 98.0041Z" fill="#020085"/>
<path d="M369.201 162.245C343.862 164.052 322.597 165.346 322.041 165.313C321.337 165.422 320.836 166.757 320.742 168.268C320.639 169.931 320.952 171.618 321.628 171.962C322.155 172.449 343.957 171.491 370.128 169.734C396.292 168.129 418.251 166.876 418.818 166.759C420.898 166.884 419.516 159.974 417.446 159.698C416.344 159.48 394.669 160.598 369.201 162.245Z" fill="#020085"/>
<path d="M24.0492 155.039C5.67362 154.688 4.55334 154.772 4.3748 157.643C4.18688 160.666 4.88117 160.708 50.7402 162.871C97.7009 165.252 103.024 164.815 100.548 159.811C99.6793 158.09 62.4762 155.691 24.0492 155.039Z" fill="#020085"/>
<path d="M315.153 206.613C313.696 209.862 316.38 211.541 329.355 215.814C343.153 220.288 346.189 220.774 347.728 218.44C349.582 215.518 345.289 212.832 332.166 208.702C316.849 203.984 316.294 203.951 315.153 206.613Z" fill="#020085"/>
<path d="M70.7665 213.09C52.5234 219.573 43.5031 223.427 43.1221 225.073C42.7598 226.417 43.3602 227.97 44.4428 228.49C45.5253 229.011 58.8689 225.114 73.9726 219.807C96.4752 212.064 101.634 209.797 101.784 207.379C101.878 205.868 101 204.298 99.8985 204.08C98.7972 203.861 85.7218 207.926 70.7665 213.09Z" fill="#020085"/>
<path d="M225.698 6.73882C225.354 7.77992 223.692 23.304 222.158 41.2629C219.847 67.2144 219.553 74.1748 220.996 75.6271C225.057 79.8164 226.014 75.6266 228.601 40.7417C231.01 8.72828 231.04 5.99961 228.708 5.40367C227.477 5.02594 226.051 5.54659 225.698 6.73882Z" stroke="#020085" stroke-width="0.8"/>
<path d="M97.6238 24.4882C96.3909 26.3857 98.0456 28.9128 124.997 66.1884C139.873 86.9586 147.002 95.5809 148.826 95.3876C150.363 95.3288 151.808 94.5057 152.151 93.4648C152.986 91.2397 104.187 24.2778 101.031 23.4805C99.8005 23.1027 98.2355 23.615 97.6238 24.4882Z" stroke="#020085" stroke-width="0.8"/>
<path d="M173.827 38.4955C172.667 41.4595 179.981 80.7346 181.869 81.7587C182.683 82.1114 184.368 81.9097 185.378 81.364C186.822 80.5409 186.659 76.4354 183.841 61.2476C182.11 50.9797 180.073 41.1483 179.473 39.595C178.133 36.4801 174.829 35.8255 173.827 38.4955Z" stroke="#020085" stroke-width="0.8"/>
<path d="M265.951 54.2228C265.497 54.8023 262.89 60.8642 260.255 67.3797C256.145 77.4464 255.597 79.5369 257.169 81.1489C260.055 84.0537 261.417 82.3158 266.817 69.4446C270.741 60.1248 271.642 56.8421 270.487 55.2552C268.832 52.7282 267.184 52.3252 265.951 54.2228Z" stroke="#020085" stroke-width="0.8"/>
<path d="M333.295 118.816C321.533 124.173 316.328 127.196 316.215 129.01C316.131 130.37 316.583 132.065 317.387 132.569C318.054 133.065 327.036 129.815 337.353 125.281C351.264 118.991 356.034 116.245 356.165 114.129C356.447 109.596 351.503 110.662 333.295 118.816Z" stroke="#020085" stroke-width="0.8"/>
<path d="M312.481 72.5059C299.007 87.4682 287.987 101.062 287.903 102.422C287.47 109.374 293.038 105.008 312.962 82.6984C324.351 69.8857 335.592 57.2156 337.853 54.4701C341.913 49.7092 342.324 45.3349 338.852 45.1252C337.742 45.0581 325.964 57.3926 312.481 72.5059Z" stroke="#020085" stroke-width="0.8"/>
<path d="M69.0799 98.0041C68.5884 99.1879 68.6237 100.859 69.2711 101.656C71.2317 103.747 120.564 124.019 122.555 123.381C123.972 123.012 125.449 117.185 124.2 117.109C123.922 117.092 112.095 112.282 97.9646 106.423C83.834 100.564 71.7297 95.737 71.1744 95.7035C70.619 95.6699 69.7201 96.6776 69.0799 98.0041Z" stroke="#020085" stroke-width="0.8"/>
<path d="M369.201 162.245C343.862 164.052 322.597 165.346 322.041 165.313C321.337 165.422 320.836 166.757 320.742 168.268C320.639 169.931 320.952 171.618 321.628 171.962C322.155 172.449 343.957 171.491 370.128 169.734C396.292 168.129 418.251 166.876 418.818 166.759C420.898 166.884 419.516 159.974 417.446 159.698C416.344 159.48 394.669 160.598 369.201 162.245Z" stroke="#020085" stroke-width="0.8"/>
<path d="M24.0492 155.039C5.67362 154.688 4.55334 154.772 4.3748 157.643C4.18688 160.666 4.88117 160.708 50.7402 162.871C97.7009 165.252 103.024 164.815 100.548 159.811C99.6793 158.09 62.4762 155.691 24.0492 155.039Z" stroke="#020085" stroke-width="0.8"/>
<path d="M315.153 206.613C313.696 209.862 316.38 211.541 329.355 215.814C343.153 220.288 346.189 220.774 347.728 218.44C349.582 215.518 345.289 212.832 332.166 208.702C316.849 203.984 316.294 203.951 315.153 206.613Z" stroke="#020085" stroke-width="0.8"/>
<path d="M70.7665 213.09C52.5234 219.573 43.5031 223.427 43.1221 225.073C42.7598 226.417 43.3602 227.97 44.4428 228.49C45.5253 229.011 58.8689 225.114 73.9726 219.807C96.4752 212.064 101.634 209.797 101.784 207.379C101.878 205.868 101 204.298 99.8985 204.08C98.7972 203.861 85.7218 207.926 70.7665 213.09Z" stroke="#020085" stroke-width="0.8"/>
</svg>
