<svg width="179" height="203" viewBox="0 0 179 203" fill="none" xmlns="http://www.w3.org/2000/svg">
<rect x="7.74251" y="7.74251" width="163.515" height="187.515" rx="81.7575" stroke="#020085" stroke-width="15.485"/>
<rect x="20.1025" y="45.8889" width="44.6697" height="10.5105" rx="2" fill="#020085"/>
<rect x="164.53" y="131.47" width="48.4203" height="10.5105" rx="2" transform="rotate(179.387 164.53 131.47)" fill="#020085"/>
<path d="M92.8743 26.8703C92.4136 26.1184 91.4821 26.014 90.873 26.4846C90.4739 26.793 90.2156 27.2626 89.8263 27.5834L88.0933 29.0111C87.7041 29.3319 87.4398 29.7745 87.1406 30.1805C86.144 31.5326 84.978 29.1576 85.2109 26.6708C85.2421 26.3375 85.3598 26.0197 85.5217 25.7267L85.5328 25.7066C85.6946 25.4135 85.8063 25.0957 85.8584 24.765C86.0292 23.6819 86.2286 22.3551 86.7018 21.9349C87.1325 21.5525 87.805 22.0277 88.3787 22.0799L92.1213 22.4201C92.695 22.4723 93.2755 22.6906 93.4714 23.2323C94.0591 24.8575 93.5731 28.0108 92.8743 26.8703ZM94.4016 59.9963C95.8367 59.9963 97 61.2124 97 62.7125V133.897C97 152.632 88.7737 162 72.3211 162C70.4075 162 68.3426 161.828 66.1265 161.483C64.8898 161.29 64 160.161 64 158.854V149.809C64 148.185 65.3547 146.935 66.9053 147.043C67.7399 147.102 68.5021 147.131 69.1918 147.131C73.6961 147.131 76.7543 146.238 78.3664 144.454C79.9784 142.67 80.7845 139.151 80.7845 133.897V62.7125C80.7845 61.2124 81.9478 59.9963 83.3829 59.9963H94.4016Z" fill="#020085"/>
<rect x="119" y="149" width="8" height="8" rx="4" fill="#020085"/>
<rect x="80.0648" y="20.2868" width="18.8887" height="18.8887" rx="9.44436" transform="rotate(3.25332 80.0648 20.2868)" fill="#020085"/>
<path d="M152.958 104.58C152.964 106.237 151.625 107.585 149.968 107.591L145.98 107.605C144.323 107.61 142.975 106.272 142.969 104.616L142.881 80.3593C142.87 77.4797 142.19 75.3222 140.842 73.887C139.493 72.423 137.869 71.6943 135.971 71.7008C133.371 71.7098 131.097 72.8407 129.149 75.0935C127.2 77.3464 126.234 80.7333 126.251 85.2543L126.322 104.672C126.328 106.329 124.989 107.677 123.332 107.683L119.343 107.696C117.687 107.702 116.339 106.364 116.333 104.707L116.195 66.9608C116.192 66.2409 116.444 65.5774 116.867 65.0576C115.935 63.0313 130.852 63.0753 137.007 63.0934C137.69 63.0954 138.266 63.0971 138.699 63.0956C142.584 63.0823 145.903 64.2803 148.657 66.6898C151.441 69.0991 152.844 73.3418 152.866 79.4179L152.958 104.58Z" fill="#020085"/>
<path d="M152.958 104.58C152.964 106.237 151.625 107.585 149.968 107.591L145.98 107.605C144.323 107.61 142.975 106.272 142.969 104.616L142.881 80.3593C142.87 77.4797 142.19 75.3222 140.842 73.887C139.493 72.423 137.869 71.6943 135.971 71.7008C133.371 71.7098 131.097 72.8407 129.149 75.0935C127.2 77.3464 126.234 80.7333 126.251 85.2543L126.322 104.672C126.328 106.329 124.989 107.677 123.332 107.683L119.343 107.696C117.687 107.702 116.339 106.364 116.333 104.707L116.195 66.9608C116.192 66.2409 116.444 65.5774 116.867 65.0576C115.935 63.0313 130.852 63.0753 137.007 63.0934C137.69 63.0954 138.266 63.0971 138.699 63.0956C142.584 63.0823 145.903 64.2803 148.657 66.6898C151.441 69.0991 152.844 73.3418 152.866 79.4179L152.958 104.58Z" stroke="#020085"/>
<circle cx="45" cy="87" r="16.5" stroke="#020085" stroke-width="15"/>
<path d="M87.187 49.851C87.2259 49.7416 87.4394 48.1016 87.6453 46.2035C87.9526 43.4609 88.0004 42.7246 87.8511 42.5673C87.4311 42.1139 87.3195 42.5553 86.9614 46.2432C86.6291 49.6275 86.6193 49.9164 86.8649 49.9851C86.9944 50.0281 87.1468 49.9764 87.187 49.851Z" fill="#020085"/>
<path d="M100.798 48.2799C100.933 48.0819 100.764 47.8103 97.9984 43.7981C96.4725 41.5627 95.738 40.6325 95.5443 40.6486C95.3813 40.6511 95.2263 40.7348 95.1874 40.8442C95.0936 41.0778 100.102 48.2864 100.434 48.3784C100.564 48.4214 100.731 48.3709 100.798 48.2799Z" fill="#020085"/>
<path d="M92.7587 46.613C92.8887 46.3019 92.2085 42.1252 92.011 42.0122C91.9256 41.9729 91.7466 41.9902 91.6383 42.0456C91.4832 42.1293 91.4906 42.5644 91.7526 44.1795C91.9112 45.271 92.1033 46.3171 92.1632 46.483C92.2976 46.8161 92.6461 46.8933 92.7587 46.613Z" fill="#020085"/>
<path d="M83.0371 44.7256C83.0866 44.6654 83.3773 44.0297 83.6722 43.3461C84.1319 42.29 84.195 42.0699 84.0323 41.8954C83.7336 41.5809 83.5851 41.7616 82.9821 43.1116C82.5438 44.0891 82.4405 44.4346 82.5591 44.6054C82.7283 44.877 82.9019 44.9236 83.0371 44.7256Z" fill="#020085"/>
<path d="M76.0585 37.7233C77.3174 37.1843 77.8761 36.8767 77.8924 36.6849C77.9047 36.5411 77.8609 36.3604 77.7768 36.3051C77.7074 36.2511 76.748 36.5736 75.6441 37.0289C74.1553 37.6614 73.6434 37.9407 73.6243 38.1645C73.5835 38.6439 74.1099 38.5429 76.0585 37.7233Z" fill="#020085"/>
<path d="M78.1519 42.6775C79.6153 41.1255 80.8155 39.7125 80.8277 39.5687C80.8903 38.8335 80.2899 39.2825 78.1254 41.597C76.8881 42.9263 75.6667 44.241 75.4205 44.5263C74.979 45.0206 74.9249 45.4829 75.2921 45.5134C75.4096 45.5232 76.687 44.2454 78.1519 42.6775Z" fill="#020085"/>
<path d="M103.999 40.5636C104.054 40.4394 104.054 40.2624 103.987 40.1764C103.785 39.9503 98.6073 37.6847 98.3948 37.7475C98.2439 37.7832 98.0733 38.3967 98.2055 38.4077C98.2349 38.4101 99.4762 38.948 100.959 39.6025C102.442 40.257 103.713 40.7973 103.771 40.8022C103.83 40.8071 103.928 40.7025 103.999 40.5636Z" fill="#020085"/>
<path d="M72.3593 33.0378C75.048 32.9075 77.304 32.8217 77.3627 32.8265C77.4375 32.8167 77.4938 32.6765 77.5074 32.5167C77.5224 32.3409 77.4933 32.1614 77.4225 32.1234C77.3679 32.0705 75.0559 32.1195 72.2792 32.2425C69.5035 32.3495 67.1742 32.4292 67.1138 32.4403C66.8938 32.422 67.0235 33.157 67.2422 33.1913C67.3584 33.2171 69.6573 33.1509 72.3593 33.0378Z" fill="#020085"/>
<path d="M108.907 34.6323C110.852 34.7138 110.971 34.7075 110.997 34.4039C111.024 34.0843 110.951 34.0782 106.098 33.7387C101.129 33.3734 100.564 33.4068 100.814 33.9427C100.902 34.127 104.837 34.4707 108.907 34.6323Z" fill="#020085"/>
<path d="M78.192 28.4696C78.3541 28.1291 78.0739 27.9448 76.7097 27.4611C75.2586 26.9541 74.9382 26.8952 74.7695 27.1387C74.5661 27.4436 75.0144 27.7385 76.3947 28.2074C78.0059 28.7439 78.0647 28.7487 78.192 28.4696Z" fill="#020085"/>
<path d="M104.097 28.3723C106.046 27.7298 107.011 27.3434 107.055 27.17C107.096 27.0286 107.037 26.8627 106.923 26.805C106.81 26.7472 105.387 27.1277 103.774 27.6534C101.371 28.4191 100.819 28.6467 100.798 28.9024C100.784 29.0623 100.873 29.2306 100.989 29.2564C101.106 29.2822 102.501 28.8832 104.097 28.3723Z" fill="#020085"/>
<path d="M87.187 49.851C87.2259 49.7416 87.4394 48.1016 87.6453 46.2035C87.9526 43.4609 88.0004 42.7246 87.8511 42.5673C87.4311 42.1139 87.3195 42.5553 86.9614 46.2432C86.6291 49.6275 86.6193 49.9164 86.8649 49.9851C86.9944 50.0281 87.1468 49.9764 87.187 49.851Z" stroke="#020085" stroke-width="0.8"/>
<path d="M100.798 48.2799C100.933 48.0819 100.764 47.8103 97.9984 43.7981C96.4725 41.5627 95.738 40.6325 95.5443 40.6486C95.3813 40.6511 95.2263 40.7348 95.1874 40.8442C95.0936 41.0778 100.102 48.2864 100.434 48.3784C100.564 48.4214 100.731 48.3709 100.798 48.2799Z" stroke="#020085" stroke-width="0.8"/>
<path d="M92.7587 46.613C92.8887 46.3019 92.2085 42.1252 92.011 42.0122C91.9256 41.9729 91.7466 41.9902 91.6383 42.0456C91.4832 42.1293 91.4906 42.5644 91.7526 44.1795C91.9112 45.271 92.1033 46.3171 92.1632 46.483C92.2976 46.8161 92.6461 46.8933 92.7587 46.613Z" stroke="#020085" stroke-width="0.8"/>
<path d="M83.0371 44.7256C83.0866 44.6654 83.3773 44.0297 83.6722 43.3461C84.1319 42.29 84.195 42.0699 84.0323 41.8954C83.7336 41.5809 83.5851 41.7616 82.9821 43.1116C82.5438 44.0891 82.4405 44.4346 82.5591 44.6054C82.7283 44.877 82.9019 44.9236 83.0371 44.7256Z" stroke="#020085" stroke-width="0.8"/>
<path d="M76.0585 37.7233C77.3174 37.1843 77.8761 36.8767 77.8924 36.6849C77.9047 36.5411 77.8609 36.3604 77.7768 36.3051C77.7074 36.2511 76.748 36.5736 75.6441 37.0289C74.1553 37.6614 73.6434 37.9407 73.6243 38.1645C73.5835 38.6439 74.1099 38.5429 76.0585 37.7233Z" stroke="#020085" stroke-width="0.8"/>
<path d="M78.1519 42.6775C79.6153 41.1255 80.8155 39.7125 80.8277 39.5687C80.8903 38.8335 80.2899 39.2825 78.1254 41.597C76.8881 42.9263 75.6667 44.241 75.4205 44.5263C74.979 45.0206 74.9249 45.4829 75.2921 45.5134C75.4096 45.5232 76.687 44.2454 78.1519 42.6775Z" stroke="#020085" stroke-width="0.8"/>
<path d="M103.999 40.5636C104.054 40.4394 104.054 40.2624 103.987 40.1764C103.785 39.9503 98.6073 37.6847 98.3948 37.7475C98.2439 37.7832 98.0733 38.3967 98.2055 38.4077C98.2349 38.4101 99.4762 38.948 100.959 39.6025C102.442 40.257 103.713 40.7973 103.771 40.8022C103.83 40.8071 103.928 40.7025 103.999 40.5636Z" stroke="#020085" stroke-width="0.8"/>
<path d="M72.3593 33.0378C75.048 32.9075 77.304 32.8217 77.3627 32.8265C77.4375 32.8167 77.4938 32.6765 77.5074 32.5167C77.5224 32.3409 77.4933 32.1614 77.4225 32.1234C77.3679 32.0705 75.0559 32.1195 72.2792 32.2425C69.5035 32.3495 67.1742 32.4292 67.1138 32.4403C66.8938 32.422 67.0235 33.157 67.2422 33.1913C67.3584 33.2171 69.6573 33.1509 72.3593 33.0378Z" stroke="#020085" stroke-width="0.8"/>
<path d="M108.907 34.6323C110.852 34.7138 110.971 34.7075 110.997 34.4039C111.024 34.0843 110.951 34.0782 106.098 33.7387C101.129 33.3734 100.564 33.4068 100.814 33.9427C100.902 34.127 104.837 34.4707 108.907 34.6323Z" stroke="#020085" stroke-width="0.8"/>
<path d="M78.192 28.4696C78.3541 28.1291 78.0739 27.9448 76.7097 27.4611C75.2586 26.9541 74.9382 26.8952 74.7695 27.1387C74.5661 27.4436 75.0144 27.7385 76.3947 28.2074C78.0059 28.7439 78.0647 28.7487 78.192 28.4696Z" stroke="#020085" stroke-width="0.8"/>
<path d="M104.097 28.3723C106.046 27.7298 107.011 27.3434 107.055 27.17C107.096 27.0286 107.037 26.8627 106.923 26.805C106.81 26.7472 105.387 27.1277 103.774 27.6534C101.371 28.4191 100.819 28.6467 100.798 28.9024C100.784 29.0623 100.873 29.2306 100.989 29.2564C101.106 29.2822 102.501 28.8832 104.097 28.3723Z" stroke="#020085" stroke-width="0.8"/>
</svg>
